<?xml version="1.0" encoding="UTF-8"?>
<svg width="24px" height="24px" viewBox="0 0 24 24" version="1.1" xmlns="http://www.w3.org/2000/svg" xmlns:xlink="http://www.w3.org/1999/xlink">
    <title>Artboard</title>
    <g id="Artboard" stroke="none" stroke-width="1" fill="none" fill-rule="evenodd">
        <g id="github-mark" transform="translate(2.000000, 2.000000)" fill="#24292F">
            <path d="M10.0082745,0 C4.47395724,0 0,4.58331417 0,10.2534988 C0,14.7859798 2.8666186,18.6226305 6.84337843,19.9805415 C7.34057584,20.0826244 7.52269718,19.7599174 7.52269718,19.4884602 C7.52269718,19.2507528 7.50630831,18.4359646 7.50630831,17.5870098 C4.72224865,18.1982572 4.1424923,16.3647232 4.1424923,16.3647232 C3.69507609,15.1763949 3.03214621,14.8709795 3.03214621,14.8709795 C2.12092492,14.2428571 3.09852114,14.2428571 3.09852114,14.2428571 C4.10930483,14.3107735 4.63968971,15.2953527 4.63968971,15.2953527 C5.53431727,16.8570128 6.97592344,16.4157647 7.55588465,16.1440992 C7.63864845,15.4820186 7.90394332,15.0236872 8.18562706,14.7691049 C5.96513974,14.5313976 3.62890602,13.6486929 3.62890602,9.71016773 C3.62890602,8.58975575 4.02633617,7.67309291 4.65607858,6.96017923 C4.55672104,6.70559696 4.20866237,5.65289303 4.75564098,4.24394059 C4.75564098,4.24394059 5.6006922,3.97227506 7.50610345,5.29643619 C8.32187776,5.07199183 9.1631726,4.95781558 10.0082745,4.95685427 C10.8533257,4.95685427 11.7147658,5.07581211 12.5102407,5.29643619 C14.4158568,3.97227506 15.260908,4.24394059 15.260908,4.24394059 C15.8078866,5.65289303 15.4596231,6.70559696 15.3602656,6.96017923 C16.0066017,7.67309291 16.387643,8.58975575 16.387643,9.71016773 C16.387643,13.6486929 14.0514093,14.5143143 11.8143282,14.7691049 C12.1789806,15.0916036 12.493647,15.7026427 12.493647,16.670347 C12.493647,18.0453412 12.4772581,19.1488783 12.4772581,19.4882518 C12.4772581,19.7599174 12.6595843,20.0826244 13.1565768,19.9807498 C17.1333367,18.6224221 20,14.7859798 20,10.2534988 C20.0163442,4.58331417 15.525998,0 10.0082745,0 Z" id="Path"></path>
        </g>
    </g>
</svg>