<?xml version="1.0" encoding="UTF-8"?>
<svg width="437px" height="96px" viewBox="0 0 437 96" version="1.1" xmlns="http://www.w3.org/2000/svg" xmlns:xlink="http://www.w3.org/1999/xlink">
    <title>IssueHub-Logo</title>
    <g id="Design" stroke="none" stroke-width="1" fill="none" fill-rule="evenodd">
        <g id="LOGO" transform="translate(-38.000000, -208.000000)" fill="#24292F">
            <g id="IssueHub-Logo" transform="translate(38.000000, 208.000000)">
                <path d="M151.68,73.56 L151.68,63.84 L141.24,63.84 L141.24,30.72 L151.68,30.72 L151.68,21 L120,21 L120,30.72 L130.44,30.72 L130.44,63.84 L120,63.84 L120,73.56 L151.68,73.56 Z M177.858323,74.28 C183.282323,74.28 187.386323,73.212 190.170323,71.076 C192.954323,68.94 194.346323,65.928 194.346323,62.04 C194.346323,54.888 189.714323,50.736 180.450323,49.584 L180.450323,49.584 L174.618323,48.792 C171.498323,48.36 169.938323,47.064 169.938323,44.904 C169.938323,42.6 171.642323,41.448 175.050323,41.448 L175.050323,41.448 L177.786323,41.448 C181.194323,41.448 182.898323,42.6 182.898323,44.904 L182.898323,44.904 L193.698323,44.904 C193.698323,41.352 192.258323,38.52 189.378323,36.408 C186.498323,34.296 182.634323,33.24 177.786323,33.24 L177.786323,33.24 L175.050323,33.24 C169.962323,33.24 166.098323,34.224 163.458323,36.192 C160.818323,38.16 159.498323,41.064 159.498323,44.904 C159.498323,51.96 163.866323,56.04 172.602323,57.144 L172.602323,57.144 L178.290323,57.864 C182.034323,58.392 183.906323,59.832 183.906323,62.184 C183.906323,64.776 181.890323,66.072 177.858323,66.072 L177.858323,66.072 L174.690323,66.072 C170.994323,66.072 169.146323,64.728 169.146323,62.04 L169.146323,62.04 L158.346323,62.04 C158.346323,64.488 159.030323,66.624 160.398323,68.448 C161.766323,70.272 163.674323,71.7 166.122323,72.732 C168.570323,73.764 171.426323,74.28 174.690323,74.28 L174.690323,74.28 L177.858323,74.28 Z M218.364646,74.28 C223.788646,74.28 227.892646,73.212 230.676646,71.076 C233.460646,68.94 234.852646,65.928 234.852646,62.04 C234.852646,54.888 230.220646,50.736 220.956646,49.584 L220.956646,49.584 L215.124646,48.792 C212.004646,48.36 210.444646,47.064 210.444646,44.904 C210.444646,42.6 212.148646,41.448 215.556646,41.448 L215.556646,41.448 L218.292646,41.448 C221.700646,41.448 223.404646,42.6 223.404646,44.904 L223.404646,44.904 L234.204646,44.904 C234.204646,41.352 232.764646,38.52 229.884646,36.408 C227.004646,34.296 223.140646,33.24 218.292646,33.24 L218.292646,33.24 L215.556646,33.24 C210.468646,33.24 206.604646,34.224 203.964646,36.192 C201.324646,38.16 200.004646,41.064 200.004646,44.904 C200.004646,51.96 204.372646,56.04 213.108646,57.144 L213.108646,57.144 L218.796646,57.864 C222.540646,58.392 224.412646,59.832 224.412646,62.184 C224.412646,64.776 222.396646,66.072 218.364646,66.072 L218.364646,66.072 L215.196646,66.072 C211.500646,66.072 209.652646,64.728 209.652646,62.04 L209.652646,62.04 L198.852646,62.04 C198.852646,64.488 199.536646,66.624 200.904646,68.448 C202.272646,70.272 204.180646,71.7 206.628646,72.732 C209.076646,73.764 211.932646,74.28 215.196646,74.28 L215.196646,74.28 L218.364646,74.28 Z M257.358969,74.28 C262.638969,74.28 266.790969,72.852 269.814969,69.996 C272.838969,67.14 274.350969,63.192 274.350969,58.152 L274.350969,58.152 L274.350969,33.96 L263.550969,33.96 L263.550969,58.08 C263.550969,60.288 263.010969,61.98 261.930969,63.156 C260.850969,64.332 259.326969,64.92 257.358969,64.92 C253.230969,64.92 251.166969,62.64 251.166969,58.08 L251.166969,58.08 L251.166969,33.96 L240.366969,33.96 L240.366969,58.152 C240.366969,63.144 241.866969,67.08 244.866969,69.96 C247.866969,72.84 252.030969,74.28 257.358969,74.28 Z M297.937293,74.28 C302.209293,74.28 305.869293,73.224 308.917293,71.112 C311.965293,69 313.921293,66.216 314.785293,62.76 L314.785293,62.76 L304.201293,62.76 C303.529293,64.92 301.489293,66 298.081293,66 C293.281293,66 290.881293,63.48 290.881293,58.44 L290.881293,58.44 L290.881293,56.28 L315.145293,56.28 L315.145293,49.08 C315.145293,45.912 314.437293,43.14 313.021293,40.764 C311.605293,38.388 309.613293,36.54 307.045293,35.22 C304.477293,33.9 301.441293,33.24 297.937293,33.24 C294.433293,33.24 291.373293,33.9 288.757293,35.22 C286.141293,36.54 284.125293,38.388 282.709293,40.764 C281.293293,43.14 280.585293,45.912 280.585293,49.08 L280.585293,49.08 L280.585293,58.44 C280.585293,61.608 281.293293,64.38 282.709293,66.756 C284.125293,69.132 286.141293,70.98 288.757293,72.3 C291.373293,73.62 294.433293,74.28 297.937293,74.28 Z M290.881293,50.16 L290.881293,49.08 C290.881293,46.632 291.469293,44.736 292.645293,43.392 C293.821293,42.048 295.585293,41.376 297.937293,41.376 C302.545293,41.376 304.849293,43.896 304.849293,48.936 L304.849293,48.936 L304.849293,50.016 L290.881293,50.16 Z M332.323616,73.56 L332.323616,50.88 L344.419616,50.88 L344.419616,73.56 L355.219616,73.56 L355.219616,21 L344.419616,21 L344.419616,41.16 L332.323616,41.16 L332.323616,21 L321.523616,21 L321.523616,73.56 L332.323616,73.56 Z M378.877939,74.28 C384.157939,74.28 388.309939,72.852 391.333939,69.996 C394.357939,67.14 395.869939,63.192 395.869939,58.152 L395.869939,58.152 L395.869939,33.96 L385.069939,33.96 L385.069939,58.08 C385.069939,60.288 384.529939,61.98 383.449939,63.156 C382.369939,64.332 380.845939,64.92 378.877939,64.92 C374.749939,64.92 372.685939,62.64 372.685939,58.08 L372.685939,58.08 L372.685939,33.96 L361.885939,33.96 L361.885939,58.152 C361.885939,63.144 363.385939,67.08 366.385939,69.96 C369.385939,72.84 373.549939,74.28 378.877939,74.28 Z M423.488262,74.28 C427.472262,74.28 430.664262,72.888 433.064262,70.104 C435.464262,67.32 436.664262,63.552 436.664262,58.8 L436.664262,58.8 L436.664262,48.72 C436.664262,44.016 435.464262,40.26 433.064262,37.452 C430.664262,34.644 427.472262,33.24 423.488262,33.24 C420.800262,33.24 418.532262,33.888 416.684262,35.184 C414.836262,36.48 413.600262,38.328 412.976262,40.728 L412.976262,40.728 L413.336262,31.8 L413.336262,21 L402.536262,21 L402.536262,73.56 L412.976262,73.56 L412.976262,66.72 C413.552262,69.12 414.764262,70.98 416.612262,72.3 C418.460262,73.62 420.752262,74.28 423.488262,74.28 Z M419.600262,64.92 C417.632262,64.92 416.096262,64.356 414.992262,63.228 C413.888262,62.1 413.336262,60.504 413.336262,58.44 L413.336262,58.44 L413.336262,49.08 C413.336262,47.016 413.888262,45.42 414.992262,44.292 C416.096262,43.164 417.632262,42.6 419.600262,42.6 C421.616262,42.6 423.164262,43.164 424.244262,44.292 C425.324262,45.42 425.864262,47.016 425.864262,49.08 L425.864262,49.08 L425.864262,58.44 C425.864262,60.504 425.324262,62.1 424.244262,63.228 C423.164262,64.356 421.616262,64.92 419.600262,64.92 Z" id="IssueHub" fill-rule="nonzero"></path>
                <g id="github-mark">
                    <path d="M48.854,0 C21.839,0 0,22 0,49.217 C0,70.973 13.993,89.389 33.405,95.907 C35.832,96.397 36.721,94.848 36.721,93.545 C36.721,92.404 36.641,88.493 36.641,84.418 C23.051,87.352 20.221,78.551 20.221,78.551 C18.037,72.847 14.801,71.381 14.801,71.381 C10.353,68.366 15.125,68.366 15.125,68.366 C20.059,68.692 22.648,73.418 22.648,73.418 C27.015,80.914 34.052,78.796 36.883,77.492 C37.287,74.314 38.582,72.114 39.957,70.892 C29.118,69.751 17.714,65.514 17.714,46.609 C17.714,41.231 19.654,36.831 22.728,33.409 C22.243,32.187 20.544,27.134 23.214,20.371 C23.214,20.371 27.339,19.067 36.64,25.423 C40.6220889,24.3456626 44.7287526,23.7976143 48.854,23.793 C52.979,23.793 57.184,24.364 61.067,25.423 C70.369,19.067 74.494,20.371 74.494,20.371 C77.164,27.134 75.464,32.187 74.979,33.409 C78.134,36.831 79.994,41.231 79.994,46.609 C79.994,65.514 68.59,69.669 57.67,70.892 C59.45,72.44 60.986,75.373 60.986,80.018 C60.986,86.618 60.906,91.915 60.906,93.544 C60.906,94.848 61.796,96.397 64.222,95.908 C83.634,89.388 97.6272183,70.973 97.6272183,49.217 C97.707,22 75.788,0 48.854,0 Z" id="Path"></path>
                </g>
            </g>
        </g>
    </g>
</svg>